<svg  className="kumsaati" width="20" height="20" viewBox="0 0 20 20" fill="none" xmlns="http://www.w3.org/2000/svg" >
<path d="M10 10L6.43926 7.03274C5.91022 6.59187 5.6457 6.37144 5.45553 6.10122C5.28704 5.86179 5.16191 5.59464 5.08585 5.31192C5 4.99284 5 4.64851 5 3.95985V1.66669M10 10L13.5607 7.03274C14.0898 6.59187 14.3543 6.37144 14.5445 6.10122C14.713 5.86179 14.8381 5.59464 14.9142 5.31192C15 4.99284 15 4.64851 15 3.95985V1.66669M10 10L6.43926 12.9673C5.91022 13.4082 5.6457 13.6286 5.45553 13.8988C5.28704 14.1382 5.16191 14.4054 5.08585 14.6881C5 15.0072 5 15.3515 5 16.0402V18.3334M10 10L13.5607 12.9673C14.0898 13.4082 14.3543 13.6286 14.5445 13.8988C14.713 14.1382 14.8381 14.4054 14.9142 14.6881C15 15.0072 15 15.3515 15 16.0402V18.3334" stroke="#F9F9F9" stroke-width="2" stroke-linecap="round" stroke-linejoin="round"/>
<path d="M3.33325 1.66669H16.6666M3.33325 18.3334H16.6666" stroke="#F9F9F9" stroke-width="2" stroke-linecap="round" stroke-linejoin="round"/>
</svg>



<svg className="pasta" width="20" height="20" viewBox="0 0 20 20" fill="none" xmlns="http://www.w3.org/2000/svg">
<g clip-path="url(#clip0_18746_5038)">
<path opacity="0.8" d="M14.3334 11.6666C14.5643 11.6666 14.6797 11.6666 14.7732 11.7179C14.8504 11.7602 14.9222 11.8396 14.9566 11.9206C14.9982 12.0188 14.9877 12.1232 14.9668 12.3322C14.8581 13.4156 14.4852 14.4595 13.8765 15.3704C13.144 16.4668 12.1028 17.3212 10.8846 17.8258C9.66647 18.3304 8.32602 18.4624 7.03282 18.2052C5.73961 17.948 4.55172 17.313 3.61937 16.3807C2.68702 15.4483 2.05208 14.2604 1.79485 12.9672C1.53761 11.674 1.66964 10.3336 2.17422 9.11541C2.67881 7.89724 3.53329 6.85605 4.62962 6.12351C5.54055 5.51484 6.58446 5.14197 7.66784 5.03327C7.87681 5.01231 7.98129 5.00182 8.07948 5.04348C8.16049 5.07785 8.23988 5.14968 8.28216 5.22684C8.33342 5.32039 8.33342 5.4358 8.33342 5.66664V11C8.33342 11.2333 8.33342 11.35 8.37883 11.4391C8.41878 11.5175 8.48252 11.5813 8.56092 11.6212C8.65005 11.6666 8.76673 11.6666 9.00009 11.6666H14.3334Z" stroke="#F9F9F9" stroke-width="2" stroke-linecap="round" stroke-linejoin="round"/>
<path d="M11.6667 2.33333C11.6667 2.1025 11.6667 1.98708 11.718 1.89353C11.7603 1.81637 11.8397 1.74454 11.9207 1.71017C12.0189 1.66851 12.1234 1.67899 12.3323 1.69995C13.856 1.85279 15.2884 2.52692 16.3808 3.61929C17.4732 4.71166 18.1473 6.14408 18.3001 7.66775C18.3211 7.87672 18.3316 7.98121 18.2899 8.0794C18.2555 8.16041 18.1837 8.2398 18.1065 8.28208C18.013 8.33333 17.8976 8.33333 17.6667 8.33333L12.3334 8.33333C12.1001 8.33333 11.9834 8.33333 11.8943 8.28792C11.8159 8.24797 11.7521 8.18423 11.7122 8.10583C11.6667 8.0167 11.6667 7.90002 11.6667 7.66667L11.6667 2.33333Z" stroke="#F9F9F9" stroke-width="2" stroke-linecap="round" stroke-linejoin="round"/>
</g>
<defs>
<clipPath id="clip0_18746_5038">
<rect width="20" height="20" fill="white"/>
</clipPath>
</defs>
</svg>

<svg className="atac" width="18" height="18" viewBox="0 0 18 18" fill="none" xmlns="http://www.w3.org/2000/svg">
<path d="M15.8063 10.6312L7.3688 2.19373C5.96255 0.731231 3.6563 0.731231 2.1938 2.13748C0.731299 3.54373 0.731299 5.90623 2.1938 7.31248L2.25005 7.36873L3.82505 8.99998L4.61255 8.21248L2.9813 6.58123C2.02505 5.62498 2.02505 3.99373 2.9813 3.03748C3.93755 2.08123 5.5688 2.02498 6.52505 2.98123L6.5813 3.03748L14.9625 11.4187C15.975 12.375 15.975 14.0062 15.0188 14.9625C14.0625 15.975 12.4313 15.975 11.475 15.0187L11.4188 14.9625L7.2563 10.8C6.6938 10.2375 6.75005 9.33748 7.2563 8.83123C7.52596 8.58696 7.87682 8.45167 8.24067 8.45167C8.60453 8.45167 8.95538 8.58696 9.22505 8.83123L11.5313 11.1375L12.3188 10.35L9.9563 7.98748C9.71683 7.76102 9.43491 7.58419 9.12679 7.4672C8.81866 7.3502 8.49042 7.29535 8.161 7.30581C7.83157 7.31627 7.50748 7.39182 7.20739 7.52813C6.90731 7.66443 6.63717 7.85878 6.41255 8.09998C5.51255 9.05623 5.51255 10.575 6.41255 11.5875L10.6313 15.8062C12.0375 17.2687 14.3438 17.2687 15.8063 15.8625C17.2688 14.4562 17.2688 12.0937 15.8063 10.6312C15.8063 10.6875 15.8063 10.6312 15.8063 10.6312Z" fill="#F9F9F9"/>
</svg>

<svg className="sagok" width="24" height="24" viewBox="0 0 24 24" fill="none" xmlns="http://www.w3.org/2000/svg">
<path d="M14 17L19 12L14 7" stroke="#E3E3E3" stroke-width="2" stroke-linecap="round" stroke-linejoin="round"/>
<path d="M19 12H5" stroke="#E3E3E3" stroke-width="2" stroke-linecap="round" stroke-linejoin="round"/>
</svg>

<svg className="acikgöz" width="20" height="20" viewBox="0 0 20 20" fill="none" xmlns="http://www.w3.org/2000/svg">
<path d="M0.833252 9.99998C0.833252 9.99998 4.16659 3.33331 9.99992 3.33331C15.8333 3.33331 19.1666 9.99998 19.1666 9.99998C19.1666 9.99998 15.8333 16.6666 9.99992 16.6666C4.16659 16.6666 0.833252 9.99998 0.833252 9.99998Z" stroke="#F9F9F9" stroke-width="1.3" stroke-linecap="round" stroke-linejoin="round"/>
<path d="M10 12.5C11.3807 12.5 12.5 11.3807 12.5 10C12.5 8.61929 11.3807 7.5 10 7.5C8.61929 7.5 7.5 8.61929 7.5 10C7.5 11.3807 8.61929 12.5 10 12.5Z" stroke="#F9F9F9" stroke-width="1.3" stroke-linecap="round" stroke-linejoin="round"/>
</svg>

<svg className="kapaligöz" width="20" height="20" viewBox="0 0 20 20" fill="none" xmlns="http://www.w3.org/2000/svg">
<g clip-path="url(#clip0_18803_172)">
<path d="M14.9499 14.95C13.5254 16.0358 11.7908 16.6374 9.99992 16.6667C4.16659 16.6667 0.833252 10 0.833252 10C1.86983 8.06825 3.30753 6.38051 5.04992 5.05M8.24992 3.53333C8.82353 3.39907 9.41081 3.33195 9.99992 3.33333C15.8333 3.33333 19.1666 10 19.1666 10C18.6607 10.9463 18.0575 11.8373 17.3666 12.6583M11.7666 11.7667C11.5377 12.0123 11.2617 12.2093 10.955 12.3459C10.6484 12.4826 10.3173 12.556 9.98166 12.562C9.64599 12.5679 9.31256 12.5061 9.00126 12.3804C8.68997 12.2547 8.40719 12.0675 8.16979 11.8301C7.9324 11.5927 7.74525 11.31 7.61951 10.9987C7.49377 10.6874 7.43202 10.3539 7.43795 10.0183C7.44387 9.68258 7.51734 9.35154 7.65398 9.04487C7.79062 8.73821 7.98763 8.46221 8.23325 8.23333" stroke="#F9F9F9" stroke-width="1.3" stroke-linecap="round" stroke-linejoin="round"/>
<path d="M0.833252 0.833313L19.1666 19.1666" stroke="#F9F9F9" stroke-width="1.3" stroke-linecap="round" stroke-linejoin="round"/>
</g>
<defs>
<clipPath id="clip0_18803_172">
<rect width="20" height="20" fill="white"/>
</clipPath>
</defs>
</svg>

<svg className="kirmiziünlem" width="20" height="20" viewBox="0 0 20 20" fill="none" xmlns="http://www.w3.org/2000/svg">
<g clip-path="url(#clip0_18803_175)">
<path fill-rule="evenodd" clip-rule="evenodd" d="M10 18.125C12.1549 18.125 14.2215 17.269 15.7452 15.7452C17.269 14.2215 18.125 12.1549 18.125 10C18.125 7.84512 17.269 5.77849 15.7452 4.25476C14.2215 2.73102 12.1549 1.875 10 1.875C7.84512 1.875 5.77849 2.73102 4.25476 4.25476C2.73102 5.77849 1.875 7.84512 1.875 10C1.875 12.1549 2.73102 14.2215 4.25476 15.7452C5.77849 17.269 7.84512 18.125 10 18.125ZM10 20C12.6522 20 15.1957 18.9464 17.0711 17.0711C18.9464 15.1957 20 12.6522 20 10C20 7.34784 18.9464 4.8043 17.0711 2.92893C15.1957 1.05357 12.6522 0 10 0C7.34784 0 4.8043 1.05357 2.92893 2.92893C1.05357 4.8043 0 7.34784 0 10C0 12.6522 1.05357 15.1957 2.92893 17.0711C4.8043 18.9464 7.34784 20 10 20ZM11.25 13.75C11.25 14.0815 11.1183 14.3995 10.8839 14.6339C10.6495 14.8683 10.3315 15 10 15C9.66848 15 9.35054 14.8683 9.11612 14.6339C8.8817 14.3995 8.75 14.0815 8.75 13.75C8.75 13.4185 8.8817 13.1005 9.11612 12.8661C9.35054 12.6317 9.66848 12.5 10 12.5C10.3315 12.5 10.6495 12.6317 10.8839 12.8661C11.1183 13.1005 11.25 13.4185 11.25 13.75ZM10.9375 5.9375C10.9375 5.68886 10.8387 5.4504 10.6629 5.27459C10.4871 5.09877 10.2486 5 10 5C9.75136 5 9.5129 5.09877 9.33709 5.27459C9.16127 5.4504 9.0625 5.68886 9.0625 5.9375V10.3125C9.0625 10.5611 9.16127 10.7996 9.33709 10.9754C9.5129 11.1512 9.75136 11.25 10 11.25C10.2486 11.25 10.4871 11.1512 10.6629 10.9754C10.8387 10.7996 10.9375 10.5611 10.9375 10.3125V5.9375Z" fill="#E90516"/>
</g>
<defs>
<clipPath id="clip0_18803_175">
<rect width="20" height="20" fill="white"/>
</clipPath>
</defs>
</svg>

<svg className="okey" width="20" height="20" viewBox="0 0 20 20" fill="none" xmlns="http://www.w3.org/2000/svg">
<g clip-path="url(#clip0_18803_181)">
<path d="M9.3752 13.6L6 9.79955L7.1248 8.53333L9.3752 11.0658L13.8744 6L15 7.26711L9.3752 13.5982V13.6Z" fill="#30B94D"/>
<path fill-rule="evenodd" clip-rule="evenodd" d="M0 10C0 4.47727 4.47727 0 10 0C15.5227 0 20 4.47727 20 10C20 15.5227 15.5227 20 10 20C4.47727 20 0 15.5227 0 10ZM10 18.1818C8.92555 18.1818 7.86162 17.9702 6.86895 17.559C5.87629 17.1478 4.97433 16.5452 4.21458 15.7854C3.45483 15.0257 2.85216 14.1237 2.44099 13.131C2.02981 12.1384 1.81818 11.0745 1.81818 10C1.81818 8.92555 2.02981 7.86162 2.44099 6.86895C2.85216 5.87629 3.45483 4.97433 4.21458 4.21458C4.97433 3.45483 5.87629 2.85216 6.86895 2.44099C7.86162 2.02981 8.92555 1.81818 10 1.81818C12.17 1.81818 14.251 2.68019 15.7854 4.21458C17.3198 5.74897 18.1818 7.83005 18.1818 10C18.1818 12.17 17.3198 14.251 15.7854 15.7854C14.251 17.3198 12.17 18.1818 10 18.1818Z" fill="#30B94D"/>
</g>
<defs>
<clipPath id="clip0_18803_181">
<rect width="20" height="20" fill="white"/>
</clipPath>
</defs>
</svg>


<svg className="weblogo" width="182" height="17" viewBox="0 0 182 17" fill="none" xmlns="http://www.w3.org/2000/svg">
<path d="M0 11V0H12.8903C14.6428 0 16.3497 0.558477 17.7633 1.59437C18.6084 2.21371 19.2833 3.0366 19.7252 3.98661L21.2165 7.19231C21.7922 5.78595 22.5143 4.44406 23.3707 3.18876L23.4446 3.08053C23.6905 2.72004 23.9717 2.38484 24.2838 2.07984L24.919 1.4592C25.333 1.05464 25.8242 0.737558 26.3634 0.526835L26.4183 0.505373C27.2728 0.171398 28.1822 0 29.0996 0H42V11H0Z" fill="#F9F9F9"/>
<rect y="13" width="42" height="4" fill="#F9F9F9"/>
<path d="M56.764 14.5H54.082L51.544 10.126H49.654V14.5H47.17V1.9H52.21C53.374 1.9 54.364 2.308 55.18 3.124C55.996 3.94 56.404 4.924 56.404 6.076C56.404 6.856 56.182 7.582 55.738 8.254C55.294 8.914 54.706 9.412 53.974 9.748L56.764 14.5ZM52.21 4.222H49.654V7.948H52.21C52.678 7.948 53.08 7.768 53.416 7.408C53.752 7.036 53.92 6.592 53.92 6.076C53.92 5.56 53.752 5.122 53.416 4.762C53.08 4.402 52.678 4.222 52.21 4.222ZM61.0706 9.298V12.124H66.3806V14.5H58.5866V1.9H66.2906V4.276H61.0706V6.958H65.8406V9.298H61.0706ZM79.4849 14.5H76.7849L76.0289 12.232H71.0069L70.2509 14.5H67.5689L71.9789 1.9H75.0569L79.4849 14.5ZM73.5269 4.762L71.7989 9.91H75.2549L73.5269 4.762ZM81.0684 1.9H86.0724C87.8004 1.9 89.2404 2.506 90.3924 3.718C91.5564 4.918 92.1384 6.412 92.1384 8.2C92.1384 9.988 91.5564 11.482 90.3924 12.682C89.2404 13.894 87.8004 14.5 86.0724 14.5H81.0684V1.9ZM83.5524 12.124H86.0724C87.1644 12.124 88.0524 11.764 88.7364 11.044C89.4204 10.3 89.7624 9.352 89.7624 8.2C89.7624 7.036 89.4204 6.094 88.7364 5.374C88.0524 4.642 87.1644 4.276 86.0724 4.276H83.5524V12.124ZM102.702 14.752C100.722 14.752 99.3364 13.954 98.5444 12.358L100.686 11.134C101.082 11.926 101.754 12.322 102.702 12.322C103.35 12.322 103.836 12.172 104.16 11.872C104.496 11.56 104.664 11.128 104.664 10.576V1.9H107.13V10.576C107.13 11.896 106.716 12.922 105.888 13.654C105.072 14.386 104.01 14.752 102.702 14.752ZM120.33 12.862C119.058 14.122 117.51 14.752 115.686 14.752C113.862 14.752 112.314 14.122 111.042 12.862C109.782 11.578 109.152 10.024 109.152 8.2C109.152 6.364 109.782 4.816 111.042 3.556C112.314 2.284 113.862 1.648 115.686 1.648C117.51 1.648 119.058 2.284 120.33 3.556C121.602 4.816 122.238 6.364 122.238 8.2C122.238 10.036 121.602 11.59 120.33 12.862ZM112.788 11.17C113.556 11.938 114.522 12.322 115.686 12.322C116.85 12.322 117.816 11.938 118.584 11.17C119.364 10.39 119.754 9.4 119.754 8.2C119.754 7 119.364 6.01 118.584 5.23C117.804 4.45 116.838 4.06 115.686 4.06C114.534 4.06 113.568 4.45 112.788 5.23C112.008 6.01 111.618 7 111.618 8.2C111.618 9.4 112.008 10.39 112.788 11.17ZM128.954 14.752C127.55 14.752 126.398 14.356 125.498 13.564C124.598 12.772 124.148 11.71 124.148 10.378V1.9H126.614V10.18C126.614 10.852 126.806 11.38 127.19 11.764C127.586 12.136 128.174 12.322 128.954 12.322C129.734 12.322 130.316 12.136 130.7 11.764C131.096 11.38 131.294 10.852 131.294 10.18V1.9H133.778V10.378C133.778 11.71 133.328 12.772 132.428 13.564C131.528 14.356 130.37 14.752 128.954 14.752ZM145.97 14.5H143.288L140.75 10.126H138.86V14.5H136.376V1.9H141.416C142.58 1.9 143.57 2.308 144.386 3.124C145.202 3.94 145.61 4.924 145.61 6.076C145.61 6.856 145.388 7.582 144.944 8.254C144.5 8.914 143.912 9.412 143.18 9.748L145.97 14.5ZM141.416 4.222H138.86V7.948H141.416C141.884 7.948 142.286 7.768 142.622 7.408C142.958 7.036 143.126 6.592 143.126 6.076C143.126 5.56 142.958 5.122 142.622 4.762C142.286 4.402 141.884 4.222 141.416 4.222ZM155.083 9.586V1.9H157.567V14.5H155.677L150.277 6.796V14.5H147.793V1.9H149.683L155.083 9.586ZM162.748 9.298V12.124H168.058V14.5H160.264V1.9H167.968V4.276H162.748V6.958H167.518V9.298H162.748ZM177.333 1.9H180.141L175.821 9.586V14.5H173.355V9.586L169.053 1.9H171.861L174.597 7.156L177.333 1.9Z" fill="#F9F9F9"/>
</svg>

<svg className="mobillogo" width="42" height="17" viewBox="0 0 42 17" fill="none" xmlns="http://www.w3.org/2000/svg">
<path d="M0 11V0H12.8903C14.6428 0 16.3497 0.558477 17.7633 1.59437C18.6084 2.21371 19.2833 3.0366 19.7252 3.98661L21.2165 7.19231C21.7922 5.78595 22.5143 4.44406 23.3707 3.18876L23.4446 3.08053C23.6905 2.72004 23.9717 2.38484 24.2838 2.07984L24.919 1.4592C25.333 1.05464 25.8242 0.737558 26.3634 0.526835L26.4183 0.505373C27.2728 0.171398 28.1822 0 29.0996 0H42V11H0Z" fill="#F9F9F9"/>
<rect y="13" width="42" height="4" fill="#F9F9F9"/>
</svg>


<svg className="recording" width="50" height="50" viewBox="0 0 50 50" fill="none" xmlns="http://www.w3.org/2000/svg">
<circle cx="25" cy="25" r="24" stroke="#F9F9F9" stroke-width="2"/>
<rect x="15" y="15" width="20" height="20" rx="3" fill="#E90516"/>
</svg>

<svg className="recordingstop" width="50" height="50" viewBox="0 0 50 50" fill="none" xmlns="http://www.w3.org/2000/svg">
<circle cx="25" cy="25" r="20" fill="#E90516"/>
<circle cx="25" cy="25" r="24" stroke="#F9F9F9" stroke-width="2"/>
</svg>


<svg className="chartS" width="116" height="117" viewBox="0 0 116 117" fill="none" xmlns="http://www.w3.org/2000/svg">
<path d="M116 58.2855C116 90.318 90.0325 116.286 58 116.286C25.9675 116.286 0 90.318 0 58.2855C0 26.253 25.9675 0.28553 58 0.28553C90.0325 0.28553 116 26.253 116 58.2855ZM10.44 58.2855C10.44 84.5522 31.7333 105.846 58 105.846C84.2667 105.846 105.56 84.5522 105.56 58.2855C105.56 32.0189 84.2667 10.7255 58 10.7255C31.7333 10.7255 10.44 32.0189 10.44 58.2855Z" fill="#1F1F1F"/>
<path d="M57.4735 4.90441C57.456 2.09609 59.7229 -0.218495 62.5214 0.0164433C70.7608 0.708147 78.77 3.20214 85.9725 7.34635C93.175 11.4906 99.3561 17.1615 104.095 23.9372C105.704 26.2386 104.843 29.3616 102.406 30.7578C99.9691 32.154 96.8836 31.2901 95.2289 29.021C91.417 23.7936 86.5406 19.4066 80.9005 16.1613C75.2603 12.916 69.0169 10.9049 62.5818 10.2364C59.7885 9.94619 57.4911 7.71272 57.4735 4.90441Z" fill="#30B94D"/>
<path d="M37.198 51.8555L40.51 50.6855H42.67V63.2855H40.186V53.3135L37.81 53.9795L37.198 51.8555ZM49.2709 63.5375C47.6989 63.5375 46.4629 62.9435 45.5629 61.7555C44.6749 60.5435 44.2309 58.9535 44.2309 56.9855C44.2309 55.0175 44.6749 53.4335 45.5629 52.2335C46.4629 51.0335 47.6989 50.4335 49.2709 50.4335C50.8669 50.4335 52.1029 51.0335 52.9789 52.2335C53.8669 53.4335 54.3109 55.0175 54.3109 56.9855C54.3109 58.9535 53.8669 60.5435 52.9789 61.7555C52.1029 62.9435 50.8669 63.5375 49.2709 63.5375ZM51.8449 56.9855C51.8449 55.6415 51.6229 54.6155 51.1789 53.9075C50.7469 53.1995 50.1109 52.8455 49.2709 52.8455C48.4309 52.8455 47.7949 53.1995 47.3629 53.9075C46.9309 54.6155 46.7149 55.6415 46.7149 56.9855C46.7149 58.3295 46.9309 59.3555 47.3629 60.0635C47.7949 60.7595 48.4309 61.1075 49.2709 61.1075C50.1109 61.1075 50.7469 60.7535 51.1789 60.0455C51.6229 59.3375 51.8449 58.3175 51.8449 56.9855ZM60.2488 63.5375C58.6768 63.5375 57.4408 62.9435 56.5408 61.7555C55.6528 60.5435 55.2088 58.9535 55.2088 56.9855C55.2088 55.0175 55.6528 53.4335 56.5408 52.2335C57.4408 51.0335 58.6768 50.4335 60.2488 50.4335C61.8448 50.4335 63.0808 51.0335 63.9568 52.2335C64.8448 53.4335 65.2888 55.0175 65.2888 56.9855C65.2888 58.9535 64.8448 60.5435 63.9568 61.7555C63.0808 62.9435 61.8448 63.5375 60.2488 63.5375ZM62.8228 56.9855C62.8228 55.6415 62.6008 54.6155 62.1568 53.9075C61.7248 53.1995 61.0888 52.8455 60.2488 52.8455C59.4088 52.8455 58.7728 53.1995 58.3408 53.9075C57.9088 54.6155 57.6928 55.6415 57.6928 56.9855C57.6928 58.3295 57.9088 59.3555 58.3408 60.0635C58.7728 60.7595 59.4088 61.1075 60.2488 61.1075C61.0888 61.1075 61.7248 60.7535 62.1568 60.0455C62.6008 59.3375 62.8228 58.3175 62.8228 56.9855ZM71.2172 55.5275C70.6292 56.0915 69.9092 56.3735 69.0572 56.3735C68.1932 56.3735 67.4672 56.0855 66.8792 55.5095C66.3032 54.9335 66.0152 54.2315 66.0152 53.4035C66.0152 52.5755 66.3032 51.8735 66.8792 51.2975C67.4792 50.7215 68.2052 50.4335 69.0572 50.4335C69.9212 50.4335 70.6412 50.7215 71.2172 51.2975C71.7932 51.8495 72.0812 52.5515 72.0812 53.4035C72.0812 54.2435 71.7932 54.9515 71.2172 55.5275ZM68.3732 62.0075L67.2932 61.3775L75.5012 52.2515L76.5992 52.8635L68.3732 62.0075ZM68.2292 54.2315C68.4452 54.4475 68.7152 54.5555 69.0392 54.5555C69.3632 54.5555 69.6332 54.4475 69.8492 54.2315C70.0652 54.0035 70.1732 53.7275 70.1732 53.4035C70.1732 53.0795 70.0652 52.8095 69.8492 52.5935C69.6332 52.3775 69.3632 52.2695 69.0392 52.2695C68.7152 52.2695 68.4452 52.3775 68.2292 52.5935C68.0252 52.8095 67.9232 53.0795 67.9232 53.4035C67.9232 53.7275 68.0252 54.0035 68.2292 54.2315ZM78.1652 60.5315C78.1652 61.3595 77.8772 62.0615 77.3012 62.6375C76.7252 63.2135 76.0052 63.5015 75.1412 63.5015C74.2772 63.5015 73.5572 63.2135 72.9812 62.6375C72.4052 62.0615 72.1172 61.3595 72.1172 60.5315C72.1172 59.7035 72.4052 59.0015 72.9812 58.4255C73.5572 57.8495 74.2772 57.5615 75.1412 57.5615C76.0052 57.5615 76.7252 57.8495 77.3012 58.4255C77.8772 59.0015 78.1652 59.7035 78.1652 60.5315ZM75.9332 61.3595C76.1492 61.1315 76.2572 60.8555 76.2572 60.5315C76.2572 60.2075 76.1492 59.9375 75.9332 59.7215C75.7292 59.4935 75.4652 59.3795 75.1412 59.3795C74.8172 59.3795 74.5472 59.4935 74.3312 59.7215C74.1272 59.9375 74.0252 60.2075 74.0252 60.5315C74.0252 60.8555 74.1272 61.1315 74.3312 61.3595C74.5472 61.5755 74.8172 61.6835 75.1412 61.6835C75.4652 61.6835 75.7292 61.5755 75.9332 61.3595Z" fill="#F9F9F9"/>
</svg>


<svg className="chartM" width="138" height="138" viewBox="0 0 138 138" fill="none" xmlns="http://www.w3.org/2000/svg">
<path d="M138 69C138 107.108 107.108 138 69 138C30.8924 138 0 107.108 0 69C0 30.8924 30.8924 0 69 0C107.108 0 138 30.8924 138 69ZM12.42 69C12.42 100.248 37.7517 125.58 69 125.58C100.248 125.58 125.58 100.248 125.58 69C125.58 37.7517 100.248 12.42 69 12.42C37.7517 12.42 12.42 37.7517 12.42 69Z" fill="#1F1F1F"/>
<path d="M69.0555 6.22501C69.0885 2.82551 71.8736 0.0652895 75.2567 0.40085C85.1488 1.38204 94.7291 4.53904 103.309 9.67841C111.913 14.8324 119.254 21.8262 124.83 30.1385C126.709 32.9389 125.619 36.6689 122.674 38.3117C119.699 39.971 115.969 38.8666 114.012 36.0789C109.528 29.6904 103.75 24.3003 97.0343 20.2773C90.3246 16.2581 82.8687 13.7174 75.1563 12.7928C71.7715 12.3871 69.0224 9.63395 69.0555 6.22501Z" fill="#30B94D"/>
<path d="M46.22 61.3L49.9 60H52.3V74H49.54V62.92L46.9 63.66L46.22 61.3ZM59.6344 74.28C57.8877 74.28 56.5144 73.62 55.5144 72.3C54.5277 70.9533 54.0344 69.1867 54.0344 67C54.0344 64.8133 54.5277 63.0533 55.5144 61.72C56.5144 60.3867 57.8877 59.72 59.6344 59.72C61.4077 59.72 62.781 60.3867 63.7544 61.72C64.741 63.0533 65.2344 64.8133 65.2344 67C65.2344 69.1867 64.741 70.9533 63.7544 72.3C62.781 73.62 61.4077 74.28 59.6344 74.28ZM62.4944 67C62.4944 65.5067 62.2477 64.3667 61.7544 63.58C61.2744 62.7933 60.5677 62.4 59.6344 62.4C58.701 62.4 57.9944 62.7933 57.5144 63.58C57.0344 64.3667 56.7944 65.5067 56.7944 67C56.7944 68.4933 57.0344 69.6333 57.5144 70.42C57.9944 71.1933 58.701 71.58 59.6344 71.58C60.5677 71.58 61.2744 71.1867 61.7544 70.4C62.2477 69.6133 62.4944 68.48 62.4944 67ZM71.832 74.28C70.0854 74.28 68.712 73.62 67.712 72.3C66.7254 70.9533 66.232 69.1867 66.232 67C66.232 64.8133 66.7254 63.0533 67.712 61.72C68.712 60.3867 70.0854 59.72 71.832 59.72C73.6054 59.72 74.9787 60.3867 75.952 61.72C76.9387 63.0533 77.432 64.8133 77.432 67C77.432 69.1867 76.9387 70.9533 75.952 72.3C74.9787 73.62 73.6054 74.28 71.832 74.28ZM74.692 67C74.692 65.5067 74.4454 64.3667 73.952 63.58C73.472 62.7933 72.7654 62.4 71.832 62.4C70.8987 62.4 70.192 62.7933 69.712 63.58C69.232 64.3667 68.992 65.5067 68.992 67C68.992 68.4933 69.232 69.6333 69.712 70.42C70.192 71.1933 70.8987 71.58 71.832 71.58C72.7654 71.58 73.472 71.1867 73.952 70.4C74.4454 69.6133 74.692 68.48 74.692 67ZM84.0191 65.38C83.3657 66.0067 82.5657 66.32 81.6191 66.32C80.6591 66.32 79.8524 66 79.1991 65.36C78.5591 64.72 78.2391 63.94 78.2391 63.02C78.2391 62.1 78.5591 61.32 79.1991 60.68C79.8657 60.04 80.6724 59.72 81.6191 59.72C82.5791 59.72 83.3791 60.04 84.0191 60.68C84.6591 61.2933 84.9791 62.0733 84.9791 63.02C84.9791 63.9533 84.6591 64.74 84.0191 65.38ZM80.8591 72.58L79.6591 71.88L88.7791 61.74L89.9991 62.42L80.8591 72.58ZM80.6991 63.94C80.9391 64.18 81.2391 64.3 81.5991 64.3C81.9591 64.3 82.2591 64.18 82.4991 63.94C82.7391 63.6867 82.8591 63.38 82.8591 63.02C82.8591 62.66 82.7391 62.36 82.4991 62.12C82.2591 61.88 81.9591 61.76 81.5991 61.76C81.2391 61.76 80.9391 61.88 80.6991 62.12C80.4724 62.36 80.3591 62.66 80.3591 63.02C80.3591 63.38 80.4724 63.6867 80.6991 63.94ZM91.7391 70.94C91.7391 71.86 91.4191 72.64 90.7791 73.28C90.1391 73.92 89.3391 74.24 88.3791 74.24C87.4191 74.24 86.6191 73.92 85.9791 73.28C85.3391 72.64 85.0191 71.86 85.0191 70.94C85.0191 70.02 85.3391 69.24 85.9791 68.6C86.6191 67.96 87.4191 67.64 88.3791 67.64C89.3391 67.64 90.1391 67.96 90.7791 68.6C91.4191 69.24 91.7391 70.02 91.7391 70.94ZM89.2591 71.86C89.4991 71.6067 89.6191 71.3 89.6191 70.94C89.6191 70.58 89.4991 70.28 89.2591 70.04C89.0324 69.7867 88.7391 69.66 88.3791 69.66C88.0191 69.66 87.7191 69.7867 87.4791 70.04C87.2524 70.28 87.1391 70.58 87.1391 70.94C87.1391 71.3 87.2524 71.6067 87.4791 71.86C87.7191 72.1 88.0191 72.22 88.3791 72.22C88.7391 72.22 89.0324 72.1 89.2591 71.86Z" fill="#F9F9F9"/>
</svg>


<svg className="chartL" width="189" height="189" viewBox="0 0 189 189" fill="none" xmlns="http://www.w3.org/2000/svg">
<path d="M179.202 95.0974C179.202 141.489 141.594 179.097 95.2024 179.097C48.8105 179.097 11.2024 141.489 11.2024 95.0974C11.2024 48.7055 48.8105 11.0974 95.2024 11.0974C141.594 11.0974 179.202 48.7055 179.202 95.0974ZM26.3224 95.0974C26.3224 133.139 57.161 163.977 95.2024 163.977C133.244 163.977 164.082 133.139 164.082 95.0974C164.082 57.056 133.244 26.2174 95.2024 26.2174C57.161 26.2174 26.3224 57.056 26.3224 95.0974Z" fill="#1F1F1F"/>
<path d="M95.3072 18.6592C95.3457 14.4994 98.7541 11.1216 102.894 11.532C115.037 12.7356 126.798 16.6026 137.332 22.8956C147.882 29.1983 156.886 37.7466 163.73 47.9041C166.045 51.3389 164.705 55.9224 161.085 57.9343C157.445 59.9572 152.887 58.6074 150.49 55.2023C144.983 47.3806 137.888 40.7802 129.641 35.8533C121.398 30.9289 112.238 27.8161 102.765 26.6841C98.6276 26.1898 95.2686 22.8254 95.3072 18.6592Z" fill="#30B94D"/>
<path d="M72.22 87.3L75.9 86H78.3V100H75.54V88.92L72.9 89.66L72.22 87.3ZM85.6344 100.28C83.8877 100.28 82.5144 99.62 81.5144 98.3C80.5277 96.9533 80.0344 95.1867 80.0344 93C80.0344 90.8133 80.5277 89.0533 81.5144 87.72C82.5144 86.3867 83.8877 85.72 85.6344 85.72C87.4077 85.72 88.781 86.3867 89.7544 87.72C90.741 89.0533 91.2344 90.8133 91.2344 93C91.2344 95.1867 90.741 96.9533 89.7544 98.3C88.781 99.62 87.4077 100.28 85.6344 100.28ZM88.4944 93C88.4944 91.5067 88.2477 90.3667 87.7544 89.58C87.2744 88.7933 86.5677 88.4 85.6344 88.4C84.701 88.4 83.9944 88.7933 83.5144 89.58C83.0344 90.3667 82.7944 91.5067 82.7944 93C82.7944 94.4933 83.0344 95.6333 83.5144 96.42C83.9944 97.1933 84.701 97.58 85.6344 97.58C86.5677 97.58 87.2744 97.1867 87.7544 96.4C88.2477 95.6133 88.4944 94.48 88.4944 93ZM97.832 100.28C96.0854 100.28 94.712 99.62 93.712 98.3C92.7254 96.9533 92.232 95.1867 92.232 93C92.232 90.8133 92.7254 89.0533 93.712 87.72C94.712 86.3867 96.0854 85.72 97.832 85.72C99.6054 85.72 100.979 86.3867 101.952 87.72C102.939 89.0533 103.432 90.8133 103.432 93C103.432 95.1867 102.939 96.9533 101.952 98.3C100.979 99.62 99.6054 100.28 97.832 100.28ZM100.692 93C100.692 91.5067 100.445 90.3667 99.952 89.58C99.472 88.7933 98.7654 88.4 97.832 88.4C96.8987 88.4 96.192 88.7933 95.712 89.58C95.232 90.3667 94.992 91.5067 94.992 93C94.992 94.4933 95.232 95.6333 95.712 96.42C96.192 97.1933 96.8987 97.58 97.832 97.58C98.7654 97.58 99.472 97.1867 99.952 96.4C100.445 95.6133 100.692 94.48 100.692 93ZM110.019 91.38C109.366 92.0067 108.566 92.32 107.619 92.32C106.659 92.32 105.852 92 105.199 91.36C104.559 90.72 104.239 89.94 104.239 89.02C104.239 88.1 104.559 87.32 105.199 86.68C105.866 86.04 106.672 85.72 107.619 85.72C108.579 85.72 109.379 86.04 110.019 86.68C110.659 87.2933 110.979 88.0733 110.979 89.02C110.979 89.9533 110.659 90.74 110.019 91.38ZM106.859 98.58L105.659 97.88L114.779 87.74L115.999 88.42L106.859 98.58ZM106.699 89.94C106.939 90.18 107.239 90.3 107.599 90.3C107.959 90.3 108.259 90.18 108.499 89.94C108.739 89.6867 108.859 89.38 108.859 89.02C108.859 88.66 108.739 88.36 108.499 88.12C108.259 87.88 107.959 87.76 107.599 87.76C107.239 87.76 106.939 87.88 106.699 88.12C106.472 88.36 106.359 88.66 106.359 89.02C106.359 89.38 106.472 89.6867 106.699 89.94ZM117.739 96.94C117.739 97.86 117.419 98.64 116.779 99.28C116.139 99.92 115.339 100.24 114.379 100.24C113.419 100.24 112.619 99.92 111.979 99.28C111.339 98.64 111.019 97.86 111.019 96.94C111.019 96.02 111.339 95.24 111.979 94.6C112.619 93.96 113.419 93.64 114.379 93.64C115.339 93.64 116.139 93.96 116.779 94.6C117.419 95.24 117.739 96.02 117.739 96.94ZM115.259 97.86C115.499 97.6067 115.619 97.3 115.619 96.94C115.619 96.58 115.499 96.28 115.259 96.04C115.032 95.7867 114.739 95.66 114.379 95.66C114.019 95.66 113.719 95.7867 113.479 96.04C113.252 96.28 113.139 96.58 113.139 96.94C113.139 97.3 113.252 97.6067 113.479 97.86C113.719 98.1 114.019 98.22 114.379 98.22C114.739 98.22 115.032 98.1 115.259 97.86Z" fill="#F9F9F9"/>
</svg>



<svg className="chartSfull" width="116" height="117" viewBox="0 0 116 117" fill="none" xmlns="http://www.w3.org/2000/svg">
<path d="M116 58.4734C116 90.5059 90.0325 116.473 58 116.473C25.9675 116.473 0 90.5059 0 58.4734C0 26.4409 25.9675 0.473419 58 0.473419C90.0325 0.473419 116 26.4409 116 58.4734ZM10.44 58.4734C10.44 84.7401 31.7333 106.033 58 106.033C84.2667 106.033 105.56 84.7401 105.56 58.4734C105.56 32.2068 84.2667 10.9134 58 10.9134C31.7333 10.9134 10.44 32.2068 10.44 58.4734Z" fill="#1F1F1F"/>
<path d="M113.824 63.7874C109.802 94.7313 81.4575 116.556 50.5136 112.535C19.5697 108.514 -2.25545 80.1691 1.76579 49.2252C5.78702 18.2813 34.1319 -3.54383 65.0758 0.477408C96.0197 4.49864 117.845 32.8435 113.824 63.7874ZM11.851 50.5358C8.55358 75.9098 26.4502 99.1526 51.8242 102.45C77.1982 105.747 100.441 87.8508 103.738 62.4768C107.036 37.1028 89.1392 13.86 63.7652 10.5626C38.3912 7.2652 15.1484 25.1618 11.851 50.5358Z" fill="#30B94D"/>
</svg>

<svg className="chartMfull" width="138" height="138" viewBox="0 0 138 138" fill="none" xmlns="http://www.w3.org/2000/svg">
<path d="M138 69C138 107.108 107.108 138 69 138C30.8924 138 0 107.108 0 69C0 30.8924 30.8924 0 69 0C107.108 0 138 30.8924 138 69ZM12.42 69C12.42 100.248 37.7517 125.58 69 125.58C100.248 125.58 125.58 100.248 125.58 69C125.58 37.7517 100.248 12.42 69 12.42C37.7517 12.42 12.42 37.7517 12.42 69Z" fill="#1F1F1F"/>
<path d="M135.745 78.3328C130.308 115.772 95.7723 141.747 58.6068 136.35C21.4412 130.953 -4.28026 96.2279 1.15628 58.789C6.59281 21.3502 41.1286 -4.62498 78.2942 0.771873C115.46 6.16873 141.181 40.8939 135.745 78.3328ZM13.2692 60.548C8.81127 91.2478 29.9029 119.722 60.3786 124.148C90.8544 128.573 119.174 107.274 123.632 76.5738C128.09 45.874 106.998 17.3993 76.5223 12.9739C46.0466 8.54848 17.7272 29.8481 13.2692 60.548Z" fill="#30B94D"/>
</svg>


<svg  className="chartLfull"  width="189" height="189" viewBox="0 0 189 189" fill="none" xmlns="http://www.w3.org/2000/svg">
<path d="M179.202 95.0974C179.202 141.489 141.594 179.097 95.2024 179.097C48.8105 179.097 11.2024 141.489 11.2024 95.0974C11.2024 48.7055 48.8105 11.0974 95.2024 11.0974C141.594 11.0974 179.202 48.7055 179.202 95.0974ZM26.3224 95.0974C26.3224 133.139 57.161 163.977 95.2024 163.977C133.244 163.977 164.082 133.139 164.082 95.0974C164.082 57.056 133.244 26.2174 95.2024 26.2174C57.161 26.2174 26.3224 57.056 26.3224 95.0974Z" fill="#1F1F1F"/>
<path d="M177.165 106.872C170.518 152.653 128.163 184.398 82.5642 177.776C36.9653 171.155 5.38928 128.674 12.0372 82.8934C18.685 37.1127 61.0394 5.36776 106.638 11.9892C152.237 18.6107 183.813 61.0911 177.165 106.872ZM26.8987 85.0515C21.4474 122.592 47.3398 157.426 84.7309 162.855C122.122 168.285 156.853 142.254 162.304 104.714C167.755 67.1736 141.863 32.3397 104.472 26.9101C67.0806 21.4805 32.35 47.5113 26.8987 85.0515Z" fill="#30B94D"/>
</svg>


<svg className="desenliyildiz" width="100" height="100" viewBox="0 0 100 100" fill="none" xmlns="http://www.w3.org/2000/svg">
<circle cx="50" cy="50" r="50" fill="#262626"/>
<path d="M25 75.5H75V25.5H25V75.5Z" fill="black"/>
</svg>
